<?xml version="1.0"?>
<svg xmlns="http://www.w3.org/2000/svg" id="filled_outline" data-name="filled outline" viewBox="0 0 512 512" width="512" height="512"><path d="M136,248l-12.06556-6.03278a40.60033,40.60033,0,0,0-39.04571,1.49954l0,0a40.60033,40.60033,0,0,1-41.77738,0L24,232v24a31.87869,31.87869,0,0,0,7.99973,21.16629L32,288a31.98729,31.98729,0,0,0,15.99788,27.71774L48,315.71405V320a32,32,0,0,0,32,32H99.15562A95.26659,95.26659,0,0,0,152,336l0-8Z" style="fill:#e8f2ff"/><path d="M392,192l-30.62745-30.62745A32,32,0,0,0,338.74517,152H336l-24-24h33.37261A54.62737,54.62737,0,0,1,384,144l0,0,32,8v16l8,16,16,16h24l8,32,0,0a54.62737,54.62737,0,0,1,16,38.62737V304l-24-24v-2.74517a32,32,0,0,0-9.37258-22.62741L432,232Z" style="fill:#fb6a83"/><path d="M440,200v32l-32,16-64,56H296l-8.57007,2.86L280,344H152l-20.69995-62.11a38.20733,38.20733,0,0,1,11.04-45.36L158.02,223.98,168,216l72-4,22.47,5.62L288,224l30,24,106-64Z" style="fill:#ffceb6"/><polygon points="464 160 314.248 279.424 304 256 448 144 464 160" style="fill:#b1712c"/><polygon points="432 128 472 176 488 120 432 128" style="fill:#ffc431"/><polygon points="152 344 280 344 280 360 216 400 152 360 152 344" style="fill:#e0edff"/><path d="M152,360l-8,64-32,40v24h32l45.02822-25.73041a53.53005,53.53005,0,0,0,17.98139-16.784l0,0A53.53023,53.53023,0,0,0,216,415.79237V400Z" style="fill:#ffceb6"/><path d="M221.26027,396.71233,264,448v24l16,16h16l19.44727-38.89454A43.124,43.124,0,0,0,320,429.81979v0a43.12411,43.12411,0,0,0-8.03257-25.06536L280,360Z" style="fill:#ffceb6"/><path d="M141.0516,208a39.15479,39.15479,0,0,1-23.49288-7.831l0,0a39.15481,39.15481,0,0,1-14.1554-42.0805L112,128v-8.0001A95.9999,95.9999,0,0,1,207.9999,24h.0002A95.9999,95.9999,0,0,1,304,119.9999V128l8.59672,30.08851a39.15481,39.15481,0,0,1-14.1554,42.0805l0,0A39.15479,39.15479,0,0,1,274.9484,208Z" style="fill:#b1712c"/><path d="M272,112h0v56.00006A63.99994,63.99994,0,0,1,208.00006,232h-.00013A63.99993,63.99993,0,0,1,144,168.00007V112l80-64Z" style="fill:#ffceb6"/><path d="M248,40H200L128,88v56h24a32.00043,32.00043,0,0,0,25.6001-12.8L192,112h1.16724A23.99936,23.99936,0,0,0,214.6333,98.73309L224,80l16.80005,22.4A23.99986,23.99986,0,0,0,260,112h28Z" style="fill:#b1712c"/><path d="M232,176v-8H216v8a8.00917,8.00917,0,0,1-8,8h-8v16h8A24.0275,24.0275,0,0,0,232,176Z"/><circle cx="192" cy="152.29773" r="8"/><circle cx="240" cy="152.29773" r="8"/><path d="M479.24316,227.98633l-7.48242-29.92676A7.9992,7.9992,0,0,0,464,192H443.314l-2.93212-2.93219,19.281-15.37616,6.19165,7.42993a8.00016,8.00016,0,0,0,13.83789-2.92383l16-56a7.99992,7.99992,0,0,0-8.82422-10.11718l-56,8a8,8,0,0,0-5.01367,13.041l9.085,10.90192L424,152.532V152a8.00005,8.00005,0,0,0-6.05957-7.76123l-29.92676-7.48145A62.18786,62.18786,0,0,0,345.37305,120H312a104,104,0,0,0-208,0v6.87939l-8.28906,29.01123A47.15438,47.15438,0,0,0,141.05176,216h13.34033c.11133.12445.21582.25531.32837.379l-17.37671,13.9013a46.59731,46.59731,0,0,0-6.4082,6.24317L127.5127,234.812a48.37776,48.37776,0,0,0-46.74024,1.79492,32.54014,32.54014,0,0,1-33.54492,0L28.11621,225.14014A8.00028,8.00028,0,0,0,16,232v24a39.79015,39.79015,0,0,0,8.022,24H24v8a39.96242,39.96242,0,0,0,16,31.978V320a40.04552,40.04552,0,0,0,40,40H99.15527A102.90406,102.90406,0,0,0,144,349.749V359.5l-7.6582,61.26611-30.58887,38.23633A8.00033,8.00033,0,0,0,104,464v24a8.00008,8.00008,0,0,0,8,8h32a7.99369,7.99369,0,0,0,3.96875-1.0542l45.0293-25.73047A61.53036,61.53036,0,0,0,224,415.79248v-3.29626l32,38.40026V472a8.00035,8.00035,0,0,0,2.34277,5.65674l16,16A8.00076,8.00076,0,0,0,280,496h16a7.99979,7.99979,0,0,0,7.15527-4.42236l19.44727-38.894A51.37926,51.37926,0,0,0,328,429.81982a50.84545,50.84545,0,0,0-9.52246-29.71533L288,357.4364V344.79248l6.36279-31.814L297.29834,312H344a7.99716,7.99716,0,0,0,5.26758-1.97949l63.22851-55.32422,20.59082-10.29541,15.88379,15.88379A23.83889,23.83889,0,0,1,456,277.25488V288a8.00035,8.00035,0,0,0,2.34277,5.65674l24,24A8.0001,8.0001,0,0,0,496,312V270.62744A62.185,62.185,0,0,0,479.24316,227.98633ZM476.919,129.66406l-8.45606,29.59522-21.13867-25.36719Zm-27.50171,31.73285-132.406,105.59052-3.34766-8.3689L445.188,156.32184ZM152,168V152a40.192,40.192,0,0,0,32-15.99951l12.11255-16.14966a31.791,31.791,0,0,0,25.67651-17.54028l3.57715-7.15479,9.0332,12.04395A32.152,32.152,0,0,0,260,120h4v48a56,56,0,0,1-112,0Zm168.28906-12.10938-.115-.40264,2.1687,2.16876A8.00076,8.00076,0,0,0,328,160h10.74512a23.84541,23.84541,0,0,1,16.9707,7.0293L377.43506,188.749l-61.19629,47.59723-23.2417-18.59332a7.99325,7.99325,0,0,0-3.05664-1.51416l-5.16895-1.29224a47.107,47.107,0,0,0,35.51758-59.05591Zm58.05469-6.23339a7.99717,7.99717,0,0,0,3.71582,2.104L408,158.24609v6.73029l-17.83667,13.873-23.134-23.134A39.74137,39.74137,0,0,0,338.74512,144h-7.43164l-7.99976-8h22.05933A46.32371,46.32371,0,0,1,378.34375,149.65723ZM141.05176,200a31.15434,31.15434,0,0,1-29.95606-39.71387l8.59668-30.08838A8.00533,8.00533,0,0,0,120,128v-8a88,88,0,0,1,176,0v8a8.00533,8.00533,0,0,0,.30762,2.19775l8.59668,30.08838A31.15533,31.15533,0,0,1,274.94824,200h-2.47583A71.539,71.539,0,0,0,280,168V120h8V104H260a16.07482,16.07482,0,0,1-12.7998-6.3999L232,77.333V56H216V78.11188l-8.52148,17.04339A15.91346,15.91346,0,0,1,193.167,104H152v16h23.99951l-4.80029,6.40039A24.1139,24.1139,0,0,1,152,136H128v16h8v16a71.539,71.539,0,0,0,7.52759,32Zm6.28613,42.77441,19.60083-15.6806a71.79692,71.79692,0,0,0,87.27149-3.93487l-.15064.60229,30.30664,7.57666,18.88623,15.10883L301.25537,248H280a7.99943,7.99943,0,0,0-6.65625,3.5625L260.044,271.51123l-64.3711-7.15234-14.01562-14.01563-11.31446,11.31348,16,16a8.00375,8.00375,0,0,0,4.77344,2.29443l72,8a7.99308,7.99308,0,0,0,7.54-3.51367L284.28125,264H298.584l10.83692,27.09375L270.70215,304H170.21582L150.667,292.271a30.21172,30.21172,0,0,1-3.3291-49.49659ZM80,344a24.03933,24.03933,0,0,1-22.82544-16.5946A40.05334,40.05334,0,0,0,64,328H88V312H64a24.04075,24.04075,0,0,1-23.50195-19.12744A39.77893,39.77893,0,0,0,56,296H72V280H56a24.0275,24.0275,0,0,1-24-24v-9.87061l6.99512,4.19727a48.51381,48.51381,0,0,0,50.00976,0,32.44668,32.44668,0,0,1,31.35157-1.2041l2.49218,1.246a45.95687,45.95687,0,0,0,.87427,34.0484l-.01489.00489,16.44555,49.33776A86.94662,86.94662,0,0,1,99.15527,344Zm120.35352,97.04736a45.76593,45.76593,0,0,1-15.29395,14.27637L141.876,480H120V466.80615l30.24707-37.80859a8.0017,8.0017,0,0,0,1.69141-4.00537l6.4458-51.56763L208,404.43433v11.35815A45.38542,45.38542,0,0,1,200.35352,441.04736ZM216,390.56592l-56-35V352H272v3.56592Zm96,39.2539a35.30268,35.30268,0,0,1-3.708,15.708L291.05566,480h-7.74218L272,468.68652V448a8.00012,8.00012,0,0,0-1.85449-5.12158l-36.86865-44.24219,44.58544-27.86572,27.59571,38.6333A34.93758,34.93758,0,0,1,312,429.81982ZM273.44141,336H157.7666l-8.6709-26.01318,14.78809,8.873A7.99883,7.99883,0,0,0,168,320H272a8.002,8.002,0,0,0,2.53027-.41064l2.3501-.78333Zm130.98047-95.15527a7.99081,7.99081,0,0,0-1.68946,1.13476L340.99414,296h-13.002a7.99713,7.99713,0,0,0-.56446-2.97119l-4.2102-10.52551L427.793,199.107,432,203.314v23.7417ZM480,292.68652l-8-8v-7.43164a39.73513,39.73513,0,0,0-11.71582-28.28418l-13.23242-13.23254A7.96886,7.96886,0,0,0,448,232V208h9.75391l6.48535,25.94043a7.99936,7.99936,0,0,0,2.10449,3.7168A46.31947,46.31947,0,0,1,480,270.62744Z"/></svg>
