<?xml version="1.0" encoding="iso-8859-1"?>
<!-- Generator: Adobe Illustrator 19.0.0, SVG Export Plug-In . SVG Version: 6.00 Build 0)  -->
<svg version="1.1" id="Capa_1" xmlns="http://www.w3.org/2000/svg" xmlns:xlink="http://www.w3.org/1999/xlink" x="0px" y="0px"
	 viewBox="0 0 512 512" style="enable-background:new 0 0 512 512;" xml:space="preserve">
<rect x="0.015" style="fill:#89A6FF;" width="511.97" height="511.97"/>
<rect x="0.015" y="298.682" style="fill:#5D84FF;" width="511.97" height="213.318"/>
<rect x="0.015" y="341.28" style="fill:#3162FF;" width="511.97" height="170.66"/>
<path style="fill:#FFFFFF;" d="M426.69,42.697c-0.7,0-1.2,0.3-1.8,0.4c-5.744-16.654-23.901-25.5-40.555-19.756
	s-25.5,23.901-19.756,40.555c4.432,12.85,16.52,21.481,30.112,21.499h31.998c11.79,0,21.349-9.558,21.349-21.349
	S438.48,42.697,426.69,42.697z"/>
<path style="fill:#5D84FF;" d="M341.295,170.69c-0.7,0-1.2,0.3-1.8,0.4c-5.744-16.654-23.901-25.499-40.555-19.756
	c-16.654,5.744-25.5,23.901-19.756,40.555c4.432,12.85,16.52,21.481,30.112,21.499h31.998c11.79,0,21.349-9.558,21.349-21.349
	C362.644,180.248,353.085,170.69,341.295,170.69L341.295,170.69z"/>
<path style="fill:#FFFFFF;" d="M181.304,106.694c-5.094,0.039-10.102,1.308-14.599,3.7c-9.774-21.399-35.046-30.822-56.446-21.048
	s-30.822,35.047-21.048,56.446c6.936,15.184,22.102,24.918,38.796,24.899h53.297c17.672,0,31.998-14.326,31.998-31.998
	S198.976,106.694,181.304,106.694z"/>
<rect x="0.015" y="383.977" style="fill:#8D2C00;" width="511.97" height="127.992"/>
<rect x="0.015" y="447.974" style="fill:#A23F00;" width="511.97" height="63.996"/>
<polygon style="fill:#41E28F;" points="42.713,341.28 192.004,341.28 117.308,170.69 "/>
<rect x="106.714" y="255.985" style="fill:#B05C26;" width="21.299" height="127.992"/>
<polygon style="fill:#C6F6DE;" points="64.011,292.583 42.713,341.28 64.011,341.28 "/>
<polygon style="fill:#008C65;" points="319.996,341.28 469.287,341.28 394.692,170.69 "/>
<rect x="383.987" y="255.985" style="fill:#8D2C00;" width="21.299" height="127.992"/>
<polygon style="fill:#41E28F;" points="149.306,383.977 256,85.295 256,85.295 362.694,383.977 "/>
<polygon style="fill:#06AB6C;" points="362.694,383.977 256,85.295 256,383.977 "/>
<polygon style="fill:#C6F6DE;" points="149.306,383.977 192.004,383.977 192.004,264.484 "/>
<polygon style="fill:#B05C26;" points="298.697,298.682 277.299,319.981 277.299,234.686 234.701,234.686 234.701,447.974 
	277.299,447.974 277.299,362.679 319.996,319.981 "/>
<polygon style="fill:#8D2C00;" points="277.299,319.981 277.299,362.679 319.996,319.981 298.697,298.682 "/>
<g>
</g>
<g>
</g>
<g>
</g>
<g>
</g>
<g>
</g>
<g>
</g>
<g>
</g>
<g>
</g>
<g>
</g>
<g>
</g>
<g>
</g>
<g>
</g>
<g>
</g>
<g>
</g>
<g>
</g>
</svg>
