<svg height="512" viewBox="0 0 256 256" width="512" xmlns="http://www.w3.org/2000/svg"><path d="m143.282 94.773.269 79.56h14.116v-65.406a13.954 13.954 0 0 0 -12-13.815z" fill="#f9cfcf"/><path d="m157.667 176.333h-14.116a2 2 0 0 1 -2-1.993l-.269-79.56a2 2 0 0 1 2.281-1.987l2.39.339a16.028 16.028 0 0 1 13.714 15.8v65.406a2 2 0 0 1 -2 1.995zm-12.123-4h10.123v-63.406a12.009 12.009 0 0 0 -10.275-11.834l-.1-.015z" fill="#3762cc"/><path d="m143.282 94.773h-41.9c2.9 39.371 4.132 45.824 2.132 52.193-8.461 10.743-11.477 13.415-12.316 20.3-1.049 8.62 3.45 13.808 5.7 16.8 6.175 8.2 14.1 7.825 22.5 8.529a26.1 26.1 0 0 0 4.253.356l27.449-26.517-3.048-17.427 5.72-18.772c5.621-18.445-9.863-34.462-10.49-35.462z" fill="#e0ebfc"/><path d="m114.051 93.665v-8.488h23.549v15.064c0 14.026-23.549 9.859-23.549-6.576z" fill="#f9cfcf"/><path d="m123.652 194.947a27.926 27.926 0 0 1 -4.5-.369c-.864-.071-1.723-.132-2.576-.192-7.481-.528-15.217-1.073-21.279-9.12l-.453-.594c-2.348-3.068-6.718-8.776-5.638-17.65.776-6.37 3.227-9.423 9.149-16.8 1.006-1.252 2.118-2.639 3.349-4.2 1.314-4.484.914-9.551-.646-29.3-.464-5.872-1.029-13.018-1.676-21.8a2 2 0 0 1 1.994-2.148h10.674c0-.632 0-1.528 0-2.834v-4.763a2 2 0 0 1 2-2h23.55a2 2 0 0 1 2 2v7.6h3.678a2 2 0 0 1 1.659.884c.072.095.2.25.384.465 10.328 12.355 13.911 25.044 10.361 36.7l-5.582 18.307 2.966 16.957a2 2 0 0 1 -.581 1.783l-27.447 26.513a2 2 0 0 1 -1.386.561zm-20.12-98.174c.581 7.8 1.09 14.252 1.515 19.633 1.649 20.88 2.041 25.841.371 31.159a2 2 0 0 1 -.337.638c-1.331 1.691-2.528 3.181-3.6 4.52-5.731 7.139-7.661 9.544-8.3 14.783-.883 7.254 2.563 11.756 4.843 14.734l.472.619c4.966 6.592 11.175 7.03 18.366 7.537.895.063 1.8.126 2.7.2.053.005.105.01.158.019a24.52 24.52 0 0 0 3.135.316l26.089-25.2-2.865-16.381a2 2 0 0 1 .057-.928l5.72-18.772c3.13-10.271-.167-21.639-9.531-32.879h-4.725a2 2 0 0 1 -2-2v-7.6h-19.549v2.764c0 4.006 0 4.015.033 4.5l.014.2a2 2 0 0 1 -2 2.132z" fill="#3762cc"/><path d="m169.187 70.883c-2.348-3.374-1.158-6.379-.461-9.018a7.8 7.8 0 0 0 -4.1-8.99c-3.544-1.746-3.529-3.4-9.411-18.761a12.24 12.24 0 0 0 -11.43-7.862h-34.785a12.242 12.242 0 0 0 -11.43 7.862c-5.87 15.324-5.862 17.012-9.411 18.761a7.8 7.8 0 0 0 -4.1 8.99c.707 2.682 1.877 5.656-.461 9.018-4.2 6.032 1.216 18.278 13.164 18.278h59.256c11.926 0 17.382-12.228 13.169-18.278z" fill="#eaa97d"/><path d="m156.022 91.161h-59.255a16.385 16.385 0 0 1 -14.861-8.75c-2.318-4.435-2.3-9.291.054-12.671 1.579-2.268 1.026-4.26.387-6.564-.075-.27-.148-.536-.218-.8a9.833 9.833 0 0 1 5.146-11.294c2.074-1.021 2.4-1.617 5.762-10.62.734-1.962 1.6-4.289 2.666-7.062a14.321 14.321 0 0 1 13.297-9.148h34.788a14.321 14.321 0 0 1 13.3 9.147c1.061 2.769 1.93 5.093 2.663 7.054 3.37 9.011 3.693 9.608 5.765 10.628a9.832 9.832 0 0 1 5.146 11.295c-.07.265-.144.533-.22.8-.64 2.3-1.192 4.286.389 6.559 2.351 3.38 2.374 8.232.058 12.663a16.393 16.393 0 0 1 -14.867 8.763zm-47.022-62.909a10.3 10.3 0 0 0 -9.562 6.577c-1.057 2.762-1.924 5.079-2.654 7.033-3.411 9.124-4.121 11.023-7.741 12.807a5.82 5.82 0 0 0 -3.043 6.685l.2.752c.715 2.578 1.693 6.107-.959 9.919-1.474 2.121-1.393 5.47.208 8.535a12.453 12.453 0 0 0 11.316 6.6h59.255a12.459 12.459 0 0 0 11.319-6.61c1.6-3.06 1.679-6.406.2-8.526-2.656-3.818-1.676-7.343-.96-9.917.071-.254.142-.5.207-.754a5.821 5.821 0 0 0 -3.046-6.685c-3.619-1.782-4.33-3.683-7.745-12.815-.73-1.953-1.595-4.267-2.651-7.025a10.3 10.3 0 0 0 -9.562-6.577z" fill="#3762cc"/><path d="m152.683 57.058v-2.458a26.168 26.168 0 0 0 -26.283-26.052 26.168 26.168 0 0 0 -26.288 26.052v2.461a7.949 7.949 0 1 0 .694 15.839 26.338 26.338 0 0 0 51.183 0 7.949 7.949 0 1 0 .694-15.839z" fill="#f9cfcf"/><g fill="#3762cc"><path d="m126.394 80.521a9.666 9.666 0 0 1 -2.844-.383 8.494 8.494 0 0 1 -3.562-2.08 1 1 0 0 1 1.42-1.409 6.468 6.468 0 0 0 2.724 1.575 8.762 8.762 0 0 0 4.524 0 6.468 6.468 0 0 0 2.724-1.575 1 1 0 0 1 1.42 1.409 8.484 8.484 0 0 1 -3.562 2.08 9.666 9.666 0 0 1 -2.844.383z"/><path d="m126.4 95.009a28.119 28.119 0 0 1 -27.126-20.089 10.064 10.064 0 0 1 -6.056-2.551 9.934 9.934 0 0 1 4.894-17.149v-.62a28.286 28.286 0 0 1 56.571 0v.623a9.921 9.921 0 0 1 4.9 17.148 10.065 10.065 0 0 1 -6.057 2.552 28.12 28.12 0 0 1 -27.126 20.086zm-25.593-24.109a2 2 0 0 1 1.945 1.542 24.338 24.338 0 0 0 47.29 0 2.011 2.011 0 0 1 2.158-1.531 5.974 5.974 0 0 0 4.7-1.513 5.9 5.9 0 0 0 .184-8.623 5.95 5.95 0 0 0 -4.362-1.713 2 2 0 0 1 -2.041-2v-2.462a24.287 24.287 0 0 0 -48.571 0v2.462a2 2 0 0 1 -.6 1.428 2.021 2.021 0 0 1 -1.441.572 5.965 5.965 0 0 0 -4.363 1.713 5.9 5.9 0 0 0 .186 8.624 5.97 5.97 0 0 0 4.7 1.512c.075-.011.145-.011.215-.011z"/><path d="m144.671 60.007h-3.191a3.574 3.574 0 0 0 -3.082.114 1.444 1.444 0 0 0 -.279.151 3.641 3.641 0 0 0 -1.729 3.095v3.9a3.655 3.655 0 1 0 7.309 0v-3.9a3.568 3.568 0 0 0 -.037-.36h1.009a1.5 1.5 0 0 0 0-3z"/><path d="m114.39 60.121a3.574 3.574 0 0 0 -3.082-.114h-3.19a1.5 1.5 0 0 0 0 3h1.008a3.567 3.567 0 0 0 -.036.36v3.9a3.655 3.655 0 1 0 7.309 0v-3.9a3.629 3.629 0 0 0 -2.009-3.246z"/></g><path d="m156.124 55.7h-31.817a17.411 17.411 0 0 1 -17.407-17.415v-2.574a17.793 17.793 0 0 1 17.793-17.793c19.939 0 31.435 14.447 31.435 29.616z" fill="#eaa97d"/><path d="m156.124 57.7h-31.817a19.432 19.432 0 0 1 -19.407-19.415v-2.574a19.815 19.815 0 0 1 19.792-19.793c21.717 0 33.436 16.289 33.436 31.616v8.166a2 2 0 0 1 -2.004 2zm-31.436-37.782a15.811 15.811 0 0 0 -15.788 15.793v2.574a15.428 15.428 0 0 0 15.407 15.415h29.817v-6.166c0-13.723-10.111-27.616-29.436-27.616z" fill="#3762cc"/><path d="m111.891 22.585-1.624 5.015 15.561 7.241 15.562-7.241-1.624-5.013a26.826 26.826 0 0 0 -9.049-12.906 7.961 7.961 0 0 0 -9.776 0 26.829 26.829 0 0 0 -9.05 12.904z" fill="#4671c6"/><path d="m125.827 36.839a2 2 0 0 1 -.843-.187l-15.561-7.241a2 2 0 0 1 -1.059-2.43l1.624-5.012a28.715 28.715 0 0 1 9.725-13.869 9.953 9.953 0 0 1 12.232 0 28.719 28.719 0 0 1 9.724 13.869l1.624 5.013a2 2 0 0 1 -1.059 2.43l-15.561 7.24a2 2 0 0 1 -.846.187zm-13.113-10.308 13.116 6.1 13.112-6.1-1.079-3.331a24.728 24.728 0 0 0 -8.374-11.944 5.958 5.958 0 0 0 -7.32 0 24.742 24.742 0 0 0 -8.376 11.944z" fill="#3762cc"/><path d="m127.544 37.114 16.418-6.514a2.66 2.66 0 0 0 1.679-2.494l-.058-7.146a1.773 1.773 0 0 0 -2.853-1.392l-14.071 10.8a4.647 4.647 0 0 1 -5.663 0l-14.071-10.8a1.773 1.773 0 0 0 -2.853 1.392l-.058 7.146a2.66 2.66 0 0 0 1.68 2.494l16.421 6.513a4.648 4.648 0 0 0 3.429.001z" fill="#e0ebfc"/><path d="m102.46 94.773a12.869 12.869 0 0 0 -12.333 9.2l-23.245 78.014a3.642 3.642 0 0 1 -1.938 2.255l-15.1 7.108a3 3 0 0 0 -1.094 4.561 3.006 3.006 0 0 0 2.8 1.133l21.959-3.144-.872 1.5a1.621 1.621 0 0 0 2.475 2.025l5.048-4.48c5.439-7.645 5.44-6.265 1.556-13.808l24.746-53.937a28.844 28.844 0 0 0 -4.002-30.427z" fill="#f9cfcf"/><path d="m74.049 199.85a3.631 3.631 0 0 1 -2.3-.84 3.583 3.583 0 0 1 -1.342-2.646l-18.571 2.659a5 5 0 0 1 -2.84-9.482l15.1-7.108a1.645 1.645 0 0 0 .874-1.017l23.24-78.016a14.961 14.961 0 0 1 14.25-10.624 2 2 0 0 1 1.54.724 31.011 31.011 0 0 1 4.279 32.534l-24.337 53.051.314.6c3.122 5.982 3.054 6.8-1.051 12.454-.422.582-.893 1.232-1.415 1.964a2.016 2.016 0 0 1 -.3.337l-5.049 4.48a3.592 3.592 0 0 1 -2.392.93zm27.481-103.036a10.944 10.944 0 0 0 -9.486 7.726l-23.244 78.019a5.649 5.649 0 0 1 -3 3.493l-15.1 7.108a1 1 0 0 0 -.366 1.525 1 1 0 0 0 .938.378l21.957-3.143a2 2 0 0 1 2.2 2.557l3.239-2.874c.477-.669.912-1.268 1.3-1.809 1.511-2.082 2.423-3.34 2.487-4.081.062-.713-.618-2.015-1.744-4.172l-.772-1.486a2 2 0 0 1 -.04-1.749l24.746-53.942a27 27 0 0 0 -3.115-27.55z" fill="#3762cc"/><path d="m134.7 205.392c-5.044 3.524-11.683 7.6-17.465 16.94l-1.636 2.642a9.938 9.938 0 0 0 1.423 12.258c6.12 6.12 13.522.644 12.236 1.436 9.814-6.04 13.752-12.8 18.688-20.03z" fill="#4671c6"/><path d="m123.819 242.186a11.322 11.322 0 0 1 -8.208-3.54 11.891 11.891 0 0 1 -1.708-14.724l1.635-2.643c5.508-8.9 11.716-13.176 16.7-16.614q.675-.465 1.318-.912a2 2 0 0 1 2.559.226l13.246 13.246a2 2 0 0 1 .238 2.542c-.477.7-.944 1.391-1.408 2.08-4.4 6.525-8.551 12.692-17.549 18.317a12.418 12.418 0 0 1 -6.823 2.022zm10.651-34.2c-4.673 3.221-10.478 7.236-15.531 15.4l-1.635 2.642a7.947 7.947 0 0 0 10.73 11.062 1.954 1.954 0 0 1 .179-.124c8.494-5.228 12.462-11.117 16.663-17.353q.246-.363.491-.728z" fill="#3762cc"/><path d="m203.958 167.257a11.433 11.433 0 0 0 3.782-6.884c1.724-11.292-12.791-17.938-20.345-9.675-45.459 49.724-44.64 48.446-44.64 48.446-10.293 7.988-16.522 11.487-19.61 21.413l-.584 1.88a7.642 7.642 0 0 0 9.888 9.456c9.425-3.4 12.408-9.1 21.608-21.447z" fill="#f9cfcf"/><path d="m129.833 234.354a9.653 9.653 0 0 1 -9.182-12.511l.585-1.88c2.851-9.167 8.191-13.21 16.274-19.33 1.254-.949 2.583-1.955 3.987-3.045.644-.631 5.656-5.837 44.422-48.239a13.73 13.73 0 1 1 19.354 19.415l-.006.006-49.736 43.045c-1.277 1.715-2.433 3.3-3.5 4.768-6.619 9.075-10.264 14.074-18.9 17.19a9.682 9.682 0 0 1 -3.298.581zm14.125-33.66.023.03c-1.429 1.109-2.781 2.132-4.057 3.1-7.732 5.855-12.4 9.388-14.869 17.328l-.585 1.881a5.643 5.643 0 0 0 7.3 6.981c7.484-2.7 10.474-6.8 17.026-15.785 1.114-1.528 2.32-3.182 3.658-4.976a1.964 1.964 0 0 1 .294-.317l49.9-43.19a9.435 9.435 0 0 0 3.114-5.673 9.34 9.34 0 0 0 -5.484-10.019 9.606 9.606 0 0 0 -11.408 2c-18.2 19.906-31.2 34.064-38.636 42.082-2.872 3.095-4.379 4.7-5.17 5.524a9.159 9.159 0 0 1 -1.106 1.034z" fill="#3762cc"/><path d="m108.985 210.17c-5.472 3.822-12.72 8.275-19.013 18.44l-1.781 2.877c-6 9.691 5.159 20.884 14.869 14.908 10.688-6.579 14.981-13.952 20.345-21.805z" fill="#4671c6"/><path d="m97.412 250.061a13.019 13.019 0 0 1 -9.093-3.832 12.631 12.631 0 0 1 -1.829-15.794l1.781-2.877c5.977-9.655 12.722-14.3 18.142-18.04q.731-.5 1.426-.988a2 2 0 0 1 2.56.226l14.42 14.42a2 2 0 0 1 .237 2.542q-.778 1.142-1.535 2.268c-4.832 7.172-9.4 13.947-19.413 20.112a12.664 12.664 0 0 1 -6.696 1.963zm11.339-37.3-.068.047c-5.112 3.523-11.475 7.909-17.011 16.851l-1.78 2.877a8.82 8.82 0 0 0 12.12 12.151c9.28-5.712 13.609-12.137 18.192-18.94.205-.305.411-.609.617-.916z" fill="#3762cc"/><path d="m185.271 159.148-12.93-12.183-66.419 11.173a18.826 18.826 0 0 0 -15.48 15.678l-.563 3.63a18.829 18.829 0 0 0 27.757 19.337z" fill="#f9cfcf"/><path d="m108.473 201.181a20.879 20.879 0 0 1 -20.573-24.042l.564-3.629a20.8 20.8 0 0 1 17.124-17.345l66.42-11.173a2.009 2.009 0 0 1 1.7.517l12.93 12.183a2 2 0 0 1 -.4 3.2l-67.635 37.635a20.815 20.815 0 0 1 -10.13 2.654zm63.22-52.079-65.439 11.008a16.8 16.8 0 0 0 -13.835 14.013l-.564 3.629a16.829 16.829 0 0 0 24.809 17.283l65.246-36.306z" fill="#3762cc"/><path d="m180.7 147.689c-4.723-1.841-8.746-1.221-12.053.973l-18.02 15.409a87 87 0 0 0 -12.483 13.167c-23.4 30.519-16.34 22.98-31.628 34.844-6.126 4.756-8.713 10.077-10.755 16.643a8.324 8.324 0 0 0 10.765 10.294c10.272-3.706 13.528-9.939 23.523-23.347l54.323-47.017a12.45 12.45 0 0 0 -3.672-20.966z" fill="#f9cfcf"/><path d="m103.693 241.519a10.338 10.338 0 0 1 -9.838-13.388c2.154-6.924 4.923-12.57 11.439-17.629 2.264-1.756 4.039-3.089 5.5-4.184 6.434-4.83 6.434-4.83 15.928-17.367 2.525-3.334 5.709-7.539 9.843-12.93a88.945 88.945 0 0 1 12.769-13.469l8.956-7.658c6.051-5.176 8.3-7.1 9.316-7.811l-.058-.087c4.089-2.713 8.89-3.117 13.886-1.17a14.45 14.45 0 0 1 4.26 24.336l-54.165 46.879c-1.4 1.878-2.662 3.613-3.833 5.219-7.177 9.843-11.13 15.265-20.485 18.639a10.342 10.342 0 0 1 -3.518.62zm48.236-75.929a85.134 85.134 0 0 0 -12.2 12.864c-4.127 5.384-7.306 9.582-9.827 12.911-9.649 12.74-9.833 12.984-16.716 18.151-1.444 1.085-3.2 2.405-5.445 4.145-5.711 4.433-8.088 9.277-10.072 15.656a6.323 6.323 0 0 0 8.176 7.819c8.2-2.959 11.68-7.73 18.609-17.234 1.215-1.666 2.531-3.47 3.989-5.426a1.977 1.977 0 0 1 .295-.318l54.323-47.016a10.45 10.45 0 0 0 -3.087-17.589c-3.743-1.459-7.149-1.22-10.124.712l-8.968 7.669c-7.193 6.154-8.636 7.388-8.953 7.656z" fill="#3762cc"/><path d="m125.829 39.443a6.65 6.65 0 0 1 -2.451-.469l-16.421-6.513a4.69 4.69 0 0 1 -2.943-4.369l.058-7.148a3.774 3.774 0 0 1 6.072-2.961l14.069 10.8a2.653 2.653 0 0 0 3.228 0l14.071-10.8a3.773 3.773 0 0 1 6.071 2.962l.058 7.146a4.69 4.69 0 0 1 -2.942 4.37l-16.418 6.512a6.652 6.652 0 0 1 -2.452.47zm-17.761-18.01-.054 6.691a.663.663 0 0 0 .418.618l16.421 6.513a2.646 2.646 0 0 0 1.953 0l16.417-6.512a.663.663 0 0 0 .417-.618l-.054-6.691-13.71 10.524a6.657 6.657 0 0 1 -8.1 0z" fill="#3762cc"/></svg>