<?xml version="1.0" encoding="iso-8859-1"?>
<!-- Generator: Adobe Illustrator 19.0.0, SVG Export Plug-In . SVG Version: 6.00 Build 0)  -->
<svg version="1.1" id="Capa_1" xmlns="http://www.w3.org/2000/svg" xmlns:xlink="http://www.w3.org/1999/xlink" x="0px" y="0px"
	 viewBox="0 0 512 512" style="enable-background:new 0 0 512 512;" xml:space="preserve">
<path style="fill:#FFC200;" d="M376.66,394.144H135.34c22.127-41.095,17.042-189.879,17.042-189.879L256,202.493l103.618,1.772
	C359.618,204.265,354.533,353.049,376.66,394.144z"/>
<rect x="223.127" y="267.439" style="fill:#FFA471;" width="65.743" height="103.023"/>
<path style="fill:#FFBE7C;" d="M170.768,217.314v-64.073c0-47.073,38.159-85.232,85.232-85.232l0,0
	c47.073,0,85.232,38.159,85.232,85.232v64.073c0,47.073-38.159,85.232-85.232,85.232l0,0
	C208.927,302.546,170.768,264.387,170.768,217.314z"/>
<path style="fill:#FFA471;" d="M256,68.01L256,68.01c-5.264,0-10.408,0.504-15.409,1.42c39.712,7.276,69.823,42.129,69.823,84.059
	v63.58c0,41.928-30.11,76.782-69.823,84.059c5,0.916,10.144,1.42,15.409,1.42l0,0c47.073,0,85.232-38.27,85.232-85.478v-63.58
	C341.232,106.281,303.072,68.01,256,68.01z"/>
<g>
	<path style="fill:#FFBE7C;" d="M170.768,222.366h-10.243c-11.363,0-20.575-9.211-20.575-20.575v-28.003
		c0-7.954,6.448-14.402,14.402-14.402h16.416V222.366z"/>
	<path style="fill:#FFBE7C;" d="M341.232,222.366h10.242c11.363,0,20.575-9.211,20.575-20.575v-28.003
		c0-7.954-6.448-14.402-14.402-14.402h-16.416v62.98H341.232z"/>
</g>
<path style="fill:#FFDD5C;" d="M148.748,160.434c0,0,82.346,7.119,104.91-47.969c0.632-1.543,2.769-1.676,3.583-0.22
	c7.449,13.336,36.275,55.324,100.425,47.14c0,0,19.89-110.663-101.667-110.663S148.748,160.434,148.748,160.434z"/>
<path style="fill:#FFC200;" d="M256,48.724c-5.599,0-10.905,0.232-15.943,0.667c103.177,9.048,86.352,108.113,86.031,109.95
	c9.415,1.357,19.911,1.534,31.58,0.046C357.667,159.386,377.557,48.724,256,48.724z"/>
<path style="fill:#FFAC46;" d="M331.975,21.858l-10.469,54.774c-0.208,1.087-1.182,1.803-2.206,1.62l-61.891-11.037
	c-0.932-0.166-1.886-0.166-2.818,0l-61.891,11.037c-1.023,0.182-1.998-0.534-2.206-1.62l-10.469-54.774
	c-0.312-1.635,1.226-2.968,2.657-2.303l39.676,18.433c0.771,0.358,1.669,0.141,2.221-0.536L254.546,0.69
	c0.75-0.92,2.156-0.92,2.906,0l29.968,36.761c0.552,0.677,1.451,0.894,2.221,0.536l39.676-18.433
	C330.75,18.89,332.288,20.223,331.975,21.858z"/>
<path style="fill:#FF941D;" d="M329.318,19.555l-31.25,14.518l-7.466,39.061l28.698,5.118c1.023,0.183,1.998-0.533,2.205-1.62
	l10.469-54.773C332.288,20.223,330.75,18.89,329.318,19.555z"/>
<circle style="fill:#00E2FF;" cx="255.998" cy="45.482" r="7.5"/>
<path style="fill:#FFA471;" d="M407.005,512h-302.01v-57.522c0-55.789,45.225-101.013,101.013-101.013h99.982
	c55.789,0,101.013,45.225,101.013,101.013L407.005,512L407.005,512z"/>
<path style="fill:#FF9754;" d="M306.137,353.465H275.32c55.708,0,100.868,45.29,100.868,101.159V512h30.817v-57.375
	C407.005,398.755,361.845,353.465,306.137,353.465z"/>
<path style="fill:#00E2FF;" d="M304.254,364.6h-96.508c-2.378,0-4.305-1.928-4.305-4.305v-22.656c0-2.378,1.928-4.305,4.305-4.305
	h96.508c2.378,0,4.305,1.928,4.305,4.305v22.656C308.559,362.673,306.632,364.6,304.254,364.6z"/>
<path style="fill:#00B5FF;" d="M304.26,333.333h-30.817c2.374,0,4.299,1.93,4.299,4.311v22.644c0,2.381-1.925,4.312-4.299,4.312
	h30.817c2.374,0,4.299-1.93,4.299-4.312v-22.644C308.559,335.264,306.634,333.333,304.26,333.333z"/>
<path style="fill:#FB1E43;" d="M372.633,507.488c0,1.514-0.051,3.018-0.165,4.512H139.53c-0.113-1.494-0.165-2.998-0.165-4.512
	c0-33.791,27.315-61.174,60.998-61.174c15.09,0,28.896,5.501,39.549,14.598c9.224,7.891,22.949,7.891,32.183,0
	c10.642-9.096,24.449-14.598,39.538-14.598C345.319,446.314,372.633,473.697,372.633,507.488z"/>
<path style="fill:#E20032;" d="M311.635,446.314c-5.633,0-11.086,0.768-16.264,2.202c25.813,7.122,44.784,30.815,44.784,58.972
	c0,1.514-0.051,3.018-0.164,4.512h32.476c0.113-1.494,0.165-2.998,0.165-4.512C372.633,473.697,345.319,446.314,311.635,446.314z"/>
<path style="fill:#FFDD5C;" d="M257.896,486.504c-1.106,0.902-2.689,0.902-3.795,0c-10.101-8.242-56.093-47.786-32.582-69.755
	c16.315-15.247,34.022,7.869,34.48,8.459c0.456-0.59,18.164-23.706,34.48-8.459C313.991,438.718,267.999,478.262,257.896,486.504z"
	/>
<g>
</g>
<g>
</g>
<g>
</g>
<g>
</g>
<g>
</g>
<g>
</g>
<g>
</g>
<g>
</g>
<g>
</g>
<g>
</g>
<g>
</g>
<g>
</g>
<g>
</g>
<g>
</g>
<g>
</g>
</svg>
