<svg height="512pt" viewBox="0 0 512 512" width="512pt" xmlns="http://www.w3.org/2000/svg"><path d="m512 429.714844c0-30.261719-22.492188-64-54.855469-64-14.210937-.160156-28.304687 2.578125-41.417969 8.046875-.050781.046875-.113281.078125-.183593.089843-9.847657 5.445313-17.960938 13.558594-23.40625 23.40625-1.515625 3.101563-4.683594 5.058594-8.136719 5.027344-1.433594.015625-2.847656-.328125-4.113281-1.003906-2.167969-1.085938-3.808594-2.988281-4.566407-5.289062-.753906-2.300782-.558593-4.808594.542969-6.964844 5.265625-9.777344 12.519531-18.34375 21.300781-25.140625-64-73.050781-49.1875-174.8125-45.4375-195.109375.554688-2.953125-.367187-5.988282-2.46875-8.136719l-56.230468-56.410156c-4.113282-4.207031-10.605469-1.554688-12.523438-.640625l-1.371094.640625c-29.988281 14.535156-71.132812 34.464843-102.765624 2.832031-30.445313-30.445312-36.207032-60.433594-17.28125-89.140625 2.488281-3.773437 1.992187-8.769531-1.1875-11.980469l-3.203126-3.289062c-1.714843-1.667969-4.003906-2.6171878-6.398437-2.652344-2.398437.0195312-4.691406.96875-6.398437 2.652344l-107.703126 108.160156-.367187.363281c-.222656.375-.5.714844-.824219 1.007813-7.039062 7.097656-7.398437 18.433594-.820312 25.964844 50.195312 56.867187 254.902344 280.503906 338.558594 335.632812 19.4375 13.722656 39.578124 26.417969 60.34375 38.035156 59.429687-2.285156 80.914062-24.683594 80.914062-82.101562zm-192-201.144532c-5.050781 0-9.144531-4.09375-9.144531-9.140624 0-5.050782 4.09375-9.144532 9.144531-9.144532s9.144531 4.09375 9.144531 9.144532c0 5.046874-4.09375 9.140624-9.144531 9.140624zm0-45.714843c-5.050781 0-9.144531-4.089844-9.144531-9.140625 0-5.050782 4.09375-9.144532 9.144531-9.144532s9.144531 4.09375 9.144531 9.144532c0 5.050781-4.09375 9.140625-9.144531 9.140625zm0 0"/><path d="m360.320312 488.867188c-84.9375-56.042969-291.292968-281.414063-341.851562-338.648438-3.898438-4.398438-6.6875-9.667969-8.136719-15.363281l-4.753906 4.757812c-3.992187 3.949219-5.972656 9.496094-5.394531 15.082031v.09375c.304687 4 1.910156 7.789063 4.570312 10.789063 103.316406 117.027344 322.558594 346.421875 360.960938 346.421875h29.804687c-21.027343-12.984375-34.375-22.582031-35.199219-23.132812zm0 0"/><path d="m146.285156 457.144531c0-5.050781-4.09375-9.144531-9.140625-9.144531h-73.144531c-5.050781 0-9.144531 4.09375-9.144531 9.144531 0 5.046875 4.09375 9.140625 9.144531 9.140625h73.144531c5.046875 0 9.140625-4.09375 9.140625-9.140625zm0 0"/><path d="m9.144531 429.714844h73.140625c5.050782 0 9.144532-4.09375 9.144532-9.144532 0-5.046874-4.09375-9.140624-9.144532-9.140624h-73.140625c-5.050781 0-9.144531 4.09375-9.144531 9.140624 0 5.050782 4.09375 9.144532 9.144531 9.144532zm0 0"/></svg>