<?xml version="1.0" encoding="iso-8859-1"?>
<!-- Generator: Adobe Illustrator 19.0.0, SVG Export Plug-In . SVG Version: 6.00 Build 0)  -->
<svg version="1.1" id="Capa_1" xmlns="http://www.w3.org/2000/svg" xmlns:xlink="http://www.w3.org/1999/xlink" x="0px" y="0px"
	 viewBox="0 0 512 512" style="enable-background:new 0 0 512 512;" xml:space="preserve">
<path style="fill:#898890;" d="M401.62,367.731c0,0,1.256-170.745,0-170.745c0-123.583-83.488-174.873-124.033-192.494
	c-13.778-5.988-29.398-5.988-43.176,0c-40.545,17.622-124.033,68.913-124.033,192.494c-1.256,0,0,170.745,0,170.745l-15.417,27.565
	c-5.943,10.624-2.4,24.047,8.012,30.356l133.51,80.896c11.995,7.268,27.037,7.268,39.033,0l133.51-80.896
	c10.412-6.309,13.954-19.731,8.012-30.356L401.62,367.731z"/>
<g>
	<path style="fill:#787680;" d="M295.968,491.893l-128.01-77.564c-9.982-6.048-13.379-18.918-7.681-29.106l14.782-26.429
		c0,0-1.203-163.712,0-163.712c0-116.511,77.393-166.005,116.939-183.69c-5.194-2.721-10.05-5.007-14.409-6.9
		c-13.778-5.988-29.398-5.988-43.176,0c-40.545,17.622-124.033,68.913-124.033,192.494c-1.256,0,0,170.745,0,170.745l-15.418,27.565
		c-5.943,10.624-2.4,24.047,8.012,30.356l133.51,80.896c11.995,7.268,27.037,7.268,39.033,0l22.394-13.569
		C297.255,492.636,296.605,492.279,295.968,491.893z"/>
	<path style="fill:#787680;" d="M234.411,4.492c-40.545,17.622-124.033,68.913-124.033,192.494c-1.256,0,0,170.745,0,170.745
		l-15.417,27.565c-5.943,10.625-2.4,24.047,8.012,30.356l133.51,80.896C242.482,510.183,249.241,512,256,512V0
		C248.65,0,241.301,1.497,234.411,4.492z"/>
</g>
<path style="fill:#57565C;" d="M160.275,385.223l14.782-26.429c0,0-1.203-163.712,0-163.712c0-86.595,42.751-136.165,80.942-163.176
	V0c-7.349,0-14.699,1.497-21.587,4.492c-40.545,17.622-124.033,68.913-124.033,192.494c-1.256,0,0,170.745,0,170.745l-15.418,27.565
	c-5.943,10.625-2.4,24.047,8.012,30.356l133.51,80.896C242.482,510.183,249.241,512,256,512v-44.325l-88.043-53.347
	C157.974,408.28,154.577,395.41,160.275,385.223z"/>
<g>
	<circle style="fill:#2D2D30;" cx="172.565" cy="300.854" r="7.726"/>
	<circle style="fill:#2D2D30;" cx="172.565" cy="378.911" r="7.726"/>
	<circle style="fill:#2D2D30;" cx="147.82" cy="337.013" r="7.726"/>
	<circle style="fill:#2D2D30;" cx="197.321" cy="337.013" r="7.726"/>
	<circle style="fill:#2D2D30;" cx="339.434" cy="297.99" r="7.726"/>
	<circle style="fill:#2D2D30;" cx="339.434" cy="376.037" r="7.726"/>
	<circle style="fill:#2D2D30;" cx="314.679" cy="334.15" r="7.726"/>
	<circle style="fill:#2D2D30;" cx="364.179" cy="334.15" r="7.726"/>
</g>
<path style="fill:#FFD422;" d="M110.379,196.986c-0.474,0-0.59,24.363-0.551,54.679h292.343c0.039-30.316-0.076-54.679-0.551-54.679
	c0-5.191-0.16-10.244-0.445-15.183h-290.35C110.539,186.742,110.379,191.795,110.379,196.986z"/>
<path style="fill:#EEBF00;" d="M256,181.803H110.825c-0.285,4.94-0.445,9.992-0.445,15.183c-0.474,0-0.59,24.363-0.551,54.679H256
	V181.803z"/>
<path style="fill:#DDB200;" d="M175.408,181.803h-64.584c-0.285,4.94-0.445,9.992-0.445,15.183c-0.474,0-0.59,24.363-0.551,54.679
	h64.708c-0.054-30.966,0.045-56.583,0.522-56.583C175.057,190.553,175.181,186.131,175.408,181.803z"/>
<path style="fill:#2D2D30;" d="M355.581,232.018H156.418c-8.406,0-15.284-6.877-15.284-15.284l0,0
	c0-8.406,6.877-15.284,15.284-15.284H355.58c8.406,0,15.284,6.877,15.284,15.284l0,0
	C370.865,225.14,363.987,232.018,355.581,232.018z"/>
<path style="fill:#1D1D1F;" d="M156.418,201.45c-8.406,0-15.284,6.879-15.284,15.284l0,0c0,8.406,6.877,15.284,15.284,15.284h18.106
	c0.012-13.182,0.071-24.102,0.2-30.569h-18.306V201.45z"/>
<path style="fill:#FFDE55;" d="M246.172,116.44l-23.68,23.993c-5.829,5.906-8.835,14.035-8.251,22.314l14.708,208.484
	c0.449,6.367,2.995,12.404,7.24,17.171l9.499,10.665c5.492,6.167,15.132,6.167,20.624,0l9.499-10.665
	c4.244-4.767,6.791-10.805,7.24-17.171l14.708-208.484c0.584-8.278-2.422-16.407-8.251-22.314l-23.68-23.993
	C260.421,110.962,251.578,110.962,246.172,116.44z"/>
<path style="fill:#FFD422;" d="M246.172,116.44l-23.68,23.994c-5.83,5.906-8.835,14.035-8.252,22.314l14.708,208.484
	c0.449,6.367,2.995,12.404,7.24,17.171l9.499,10.667c2.745,3.083,6.529,4.625,10.312,4.625V112.332
	C252.437,112.332,248.875,113.701,246.172,116.44z"/>
<g>
</g>
<g>
</g>
<g>
</g>
<g>
</g>
<g>
</g>
<g>
</g>
<g>
</g>
<g>
</g>
<g>
</g>
<g>
</g>
<g>
</g>
<g>
</g>
<g>
</g>
<g>
</g>
<g>
</g>
</svg>
